{"asset":{"version":"2.0","generator":"THREE.GLTFExporter"},"scenes":[{"name":"default","nodes":[0,1,2,3,4]}],"scene":0,"nodes":[{"matrix":[1,0,0,0,0,1,0,0,0,0,1,0,2,-1,-2.5,1],"name":"ForestTile","extras":{"data":{"name":"GroundForest","points":[{"name":"Origin","pos":{"x":0,"y":0,"z":0}}],"billboard":{"enabled":false,"y":false},"custom":[],"instance":{"name":"ForestTile","uuid":"DD9D5359-BD37-4A9B-A694-295D90AB5B76","parent":null,"pos":{"x":2,"y":-1,"z":-2.5},"rot":{"x":0,"y":0,"z":0,"order":"XYZ"},"sca":{"x":1,"y":1,"z":1},"custom":[]}}},"mesh":0},{"matrix":[1,0,0,0,0,1,0,0,0,0,1,0,0.49999999999999956,0.00003430085826394702,-4.49994999750025,1],"name":"Tree02","extras":{"data":{"name":"Tree","points":[{"name":"Origin","pos":{"x":0,"y":0,"z":0}}],"billboard":{"enabled":false,"y":false},"custom":[],"instance":{"name":"Tree02","uuid":"75CC280E-BC39-439C-A622-B43453BC3D39","parent":null,"pos":{"x":0.5,"y":0,"z":-4.5},"rot":{"x":0,"y":0,"z":0,"order":"XYZ"},"sca":{"x":1,"y":1,"z":1},"custom":[]}}},"mesh":1},{"matrix":[2.220446049250313e-16,0,-1,0,0,1,0,0,1,0,2.220446049250313e-16,0,3.9999999999999996,0.00003430085826394702,-0.4999499975002504,1],"name":"Tree01","extras":{"data":{"name":"Tree","points":[{"name":"Origin","pos":{"x":0,"y":0,"z":0}}],"billboard":{"enabled":false,"y":false},"custom":[],"instance":{"name":"Tree01","uuid":"78256E72-CE3B-4AE0-A494-723999DDC8DD","parent":null,"pos":{"x":4,"y":0,"z":-0.5},"rot":{"x":0,"y":1.5707963267948966,"z":0,"order":"XYZ"},"sca":{"x":1,"y":1,"z":1},"custom":[]}}},"mesh":2},{"matrix":[0.999999999999996,0,0,0,0,0.9999999999999986,0,0,0,0,0.9999999999999964,0,1,0.00003430085826439111,-0.9999499975002504,1],"name":"Flower02","extras":{"data":{"name":"Flower","points":[{"name":"Origin","pos":{"x":0,"y":0,"z":0}}],"billboard":{"enabled":true,"y":false},"custom":[],"instance":{"name":"Flower02","uuid":"53F4CCDB-11F1-4625-A2F9-3C3396435116","parent":null,"pos":{"x":1,"y":0,"z":-1},"rot":{"x":0,"y":0,"z":0,"order":"XYZ"},"sca":{"x":0.999999999999996,"y":0.9999999999999986,"z":0.9999999999999964},"custom":[]}}},"mesh":3},{"matrix":[0.9999999999999992,0,0,0,0,0.9999999999999988,0,0,0,0,0.9999999999999967,0,4,0.00003430085826439111,-3.9999499975002504,1],"name":"Flower01","extras":{"data":{"name":"Flower","points":[{"name":"Origin","pos":{"x":0,"y":0,"z":0}}],"billboard":{"enabled":true,"y":false},"custom":[],"instance":{"name":"Flower01","uuid":"623FE782-ECA8-4CC2-9B3C-9849E9EF2389","parent":null,"pos":{"x":4,"y":0,"z":-4},"rot":{"x":0,"y":0,"z":0,"order":"XYZ"},"sca":{"x":0.9999999999999992,"y":0.9999999999999988,"z":0.9999999999999967},"custom":[]}}},"mesh":4}],"bufferViews":[{"buffer":0,"byteOffset":0,"byteLength":3240,"target":34962,"byteStride":12},{"buffer":0,"byteOffset":3240,"byteLength":3240,"target":34962,"byteStride":12},{"buffer":0,"byteOffset":6480,"byteLength":2160,"target":34962,"byteStride":8},{"buffer":0,"byteOffset":8640,"byteLength":2160,"target":34962,"byteStride":8},{"buffer":0,"byteOffset":10800,"byteLength":540,"target":34963},{"buffer":0,"byteOffset":11340,"byteLength":3600,"target":34962,"byteStride":12},{"buffer":0,"byteOffset":14940,"byteLength":3600,"target":34962,"byteStride":12},{"buffer":0,"byteOffset":18540,"byteLength":2400,"target":34962,"byteStride":8},{"buffer":0,"byteOffset":20940,"byteLength":2400,"target":34962,"byteStride":8},{"buffer":0,"byteOffset":23340,"byteLength":600,"target":34963},{"buffer":0,"byteOffset":23940,"byteLength":3600,"target":34962,"byteStride":12},{"buffer":0,"byteOffset":27540,"byteLength":3600,"target":34962,"byteStride":12},{"buffer":0,"byteOffset":31140,"byteLength":2400,"target":34962,"byteStride":8},{"buffer":0,"byteOffset":33540,"byteLength":2400,"target":34962,"byteStride":8},{"buffer":0,"byteOffset":35940,"byteLength":600,"target":34963},{"buffer":0,"byteOffset":36540,"byteLength":72,"target":34962,"byteStride":12},{"buffer":0,"byteOffset":36612,"byteLength":72,"target":34962,"byteStride":12},{"buffer":0,"byteOffset":36684,"byteLength":48,"target":34962,"byteStride":8},{"buffer":0,"byteOffset":36732,"byteLength":48,"target":34962,"byteStride":8},{"buffer":0,"byteOffset":36780,"byteLength":12,"target":34963},{"buffer":0,"byteOffset":36792,"byteLength":72,"target":34962,"byteStride":12},{"buffer":0,"byteOffset":36864,"byteLength":72,"target":34962,"byteStride":12},{"buffer":0,"byteOffset":36936,"byteLength":48,"target":34962,"byteStride":8},{"buffer":0,"byteOffset":36984,"byteLength":48,"target":34962,"byteStride":8},{"buffer":0,"byteOffset":37032,"byteLength":12,"target":34963}],"buffers":[{"byteLength":37044,"uri":"data:application/octet-stream;base64,"}],"accessors":[{"bufferView":0,"componentType":5126,"count":270,"max":[3,1.0000343322753906,2.5000500679016113],"min":[-2,0.000034300857805646956,-2.4999499320983887],"type":"VEC3"},{"bufferView":1,"componentType":5126,"count":270,"max":[1,1,1],"min":[-1,0,-1],"type":"VEC3"},{"bufferView":2,"componentType":5126,"count":270,"max":[0.140625,0.296875],"min":[0.015625,0.015625],"type":"VEC2"},{"bufferView":3,"componentType":5126,"count":270,"max":[-1,0],"min":[-1,0],"type":"VEC2"},{"bufferView":4,"componentType":5123,"count":270,"max":[269],"min":[0],"type":"SCALAR"},{"bufferView":5,"componentType":5126,"count":300,"max":[1.5,5,1.5],"min":[-1.5,4.440892098500626e-16,-1.5],"type":"VEC3"},{"bufferView":6,"componentType":5126,"count":300,"max":[1,0.8164966106414795,0.8944271802902222],"min":[-1,-4.7102771630894635e-16,-1],"type":"VEC3"},{"bufferView":7,"componentType":5126,"count":300,"max":[0.453125,0.296875],"min":[0.171875,0.015625],"type":"VEC2"},{"bufferView":8,"componentType":5126,"count":300,"max":[-1,0],"min":[-1,0],"type":"VEC2"},{"bufferView":9,"componentType":5123,"count":300,"max":[299],"min":[0],"type":"SCALAR"},{"bufferView":10,"componentType":5126,"count":300,"max":[1.5,5,1.5],"min":[-1.5,4.440892098500626e-16,-1.5],"type":"VEC3"},{"bufferView":11,"componentType":5126,"count":300,"max":[1,0.8164966106414795,0.8944271802902222],"min":[-1,-4.7102771630894635e-16,-1],"type":"VEC3"},{"bufferView":12,"componentType":5126,"count":300,"max":[0.453125,0.296875],"min":[0.171875,0.015625],"type":"VEC2"},{"bufferView":13,"componentType":5126,"count":300,"max":[-1,0],"min":[-1,0],"type":"VEC2"},{"bufferView":14,"componentType":5123,"count":300,"max":[299],"min":[0],"type":"SCALAR"},{"bufferView":15,"componentType":5126,"count":6,"max":[0.5,1,0],"min":[-0.5,0,0],"type":"VEC3"},{"bufferView":16,"componentType":5126,"count":6,"max":[0,0,1],"min":[0,0,1],"type":"VEC3"},{"bufferView":17,"componentType":5126,"count":6,"max":[0.296875,0.140625],"min":[0.171875,0.015625],"type":"VEC2"},{"bufferView":18,"componentType":5126,"count":6,"max":[-1,0],"min":[-1,0],"type":"VEC2"},{"bufferView":19,"componentType":5123,"count":6,"max":[5],"min":[0],"type":"SCALAR"},{"bufferView":20,"componentType":5126,"count":6,"max":[0.5,1,0],"min":[-0.5,0,0],"type":"VEC3"},{"bufferView":21,"componentType":5126,"count":6,"max":[0,0,1],"min":[0,0,1],"type":"VEC3"},{"bufferView":22,"componentType":5126,"count":6,"max":[0.296875,0.140625],"min":[0.171875,0.015625],"type":"VEC2"},{"bufferView":23,"componentType":5126,"count":6,"max":[-1,0],"min":[-1,0],"type":"VEC2"},{"bufferView":24,"componentType":5123,"count":6,"max":[5],"min":[0],"type":"SCALAR"}],"materials":[{"pbrMetallicRoughness":{"metallicFactor":0.5,"roughnessFactor":0.5,"baseColorTexture":{"index":0}},"alphaMode":"MASK","alphaCutoff":0.01,"name":"texture_0"}],"textures":[{"sampler":0,"source":0,"name":"texture_0"}],"samplers":[{"magFilter":9728,"minFilter":9728,"wrapS":33071,"wrapT":33071}],"images":[{"mimeType":"image/png","uri":"texture_0.png"}],"meshes":[{"primitives":[{"mode":4,"attributes":{"POSITION":0,"NORMAL":1,"TEXCOORD_0":2,"_UVANIMATION":3},"indices":4,"material":0}]},{"primitives":[{"mode":4,"attributes":{"POSITION":5,"NORMAL":6,"TEXCOORD_0":7,"_UVANIMATION":8},"indices":9,"material":0}]},{"primitives":[{"mode":4,"attributes":{"POSITION":10,"NORMAL":11,"TEXCOORD_0":12,"_UVANIMATION":13},"indices":14,"material":0}]},{"primitives":[{"mode":4,"attributes":{"POSITION":15,"NORMAL":16,"TEXCOORD_0":17,"_UVANIMATION":18},"indices":19,"material":0}]},{"primitives":[{"mode":4,"attributes":{"POSITION":20,"NORMAL":21,"TEXCOORD_0":22,"_UVANIMATION":23},"indices":24,"material":0}]}]}