{"asset":{"version":"2.0","generator":"THREE.GLTFExporter"},"scenes":[{"name":"default","nodes":[0,1,2,3,4]}],"scene":0,"nodes":[{"matrix":[1,0,0,0,0,1,0,0,0,0,1,0,-2,0.5,-7,1],"name":"GodRock","extras":{"data":{"name":"GodRock","points":[{"name":"Origin","pos":{"x":0,"y":0,"z":0}}],"billboard":{"enabled":false,"y":false},"custom":[],"instance":{"name":"GodRock","uuid":"BFFDCBD8-27C6-46A1-811E-C298D8650A2C","parent":null,"pos":{"x":-2,"y":0.5,"z":-7},"rot":{"x":0,"y":0,"z":0,"order":"XYZ"},"sca":{"x":1,"y":1,"z":1},"custom":[]}}},"mesh":0},{"matrix":[1,0,0,0,0,1,0,0,0,0,1,0,-5,0.5,-7,1],"name":"GodRock","extras":{"data":{"name":"GodRock","points":[{"name":"Origin","pos":{"x":0,"y":0,"z":0}}],"billboard":{"enabled":false,"y":false},"custom":[],"instance":{"name":"GodRock","uuid":"7E7AB996-2B0B-4EB1-9864-4577BD5EF8FD","parent":null,"pos":{"x":-5,"y":0.5,"z":-7},"rot":{"x":0,"y":0,"z":0,"order":"XYZ"},"sca":{"x":1,"y":1,"z":1},"custom":[]}}},"mesh":1},{"matrix":[1,0,0,0,0,1,0,0,0,0,1,0,-5,0.5,-10,1],"name":"GodRock","extras":{"data":{"name":"GodRock","points":[{"name":"Origin","pos":{"x":0,"y":0,"z":0}}],"billboard":{"enabled":false,"y":false},"custom":[],"instance":{"name":"GodRock","uuid":"FD55A009-A810-4208-9F32-517F449585C1","parent":null,"pos":{"x":-5,"y":0.5,"z":-10},"rot":{"x":0,"y":0,"z":0,"order":"XYZ"},"sca":{"x":1,"y":1,"z":1},"custom":[]}}},"mesh":2},{"matrix":[1,0,0,0,0,1,0,0,0,0,1,0,-2,0.5,-10,1],"name":"GodRock","extras":{"data":{"name":"GodRock","points":[{"name":"Origin","pos":{"x":0,"y":0,"z":0}}],"billboard":{"enabled":false,"y":false},"custom":[],"instance":{"name":"GodRock","uuid":"158B6616-65F7-4F1E-A358-30B2C6FDE77B","parent":null,"pos":{"x":-2,"y":0.5,"z":-10},"rot":{"x":0,"y":0,"z":0,"order":"XYZ"},"sca":{"x":1,"y":1,"z":1},"custom":[]}}},"mesh":3},{"matrix":[1,0,0,0,0,1,0,0,0,0,1,0,-6,0,-11,1],"name":"GroundGod","extras":{"data":{"name":"GroundGod","points":[{"name":"Origin","pos":{"x":0,"y":0,"z":0}}],"billboard":{"enabled":false,"y":false},"custom":[],"instance":{"name":"GroundGod","uuid":"A4FDD95C-FB92-4734-8B96-DD1B5C00D857","parent":null,"pos":{"x":-6,"y":0,"z":-11},"rot":{"x":0,"y":0,"z":0,"order":"XYZ"},"sca":{"x":1,"y":1,"z":1},"custom":[]}}},"mesh":4}],"bufferViews":[{"buffer":0,"byteOffset":0,"byteLength":576,"target":34962,"byteStride":12},{"buffer":0,"byteOffset":576,"byteLength":576,"target":34962,"byteStride":12},{"buffer":0,"byteOffset":1152,"byteLength":384,"target":34962,"byteStride":8},{"buffer":0,"byteOffset":1536,"byteLength":384,"target":34962,"byteStride":8},{"buffer":0,"byteOffset":1920,"byteLength":96,"target":34963},{"buffer":0,"byteOffset":2016,"byteLength":576,"target":34962,"byteStride":12},{"buffer":0,"byteOffset":2592,"byteLength":576,"target":34962,"byteStride":12},{"buffer":0,"byteOffset":3168,"byteLength":384,"target":34962,"byteStride":8},{"buffer":0,"byteOffset":3552,"byteLength":384,"target":34962,"byteStride":8},{"buffer":0,"byteOffset":3936,"byteLength":96,"target":34963},{"buffer":0,"byteOffset":4032,"byteLength":576,"target":34962,"byteStride":12},{"buffer":0,"byteOffset":4608,"byteLength":576,"target":34962,"byteStride":12},{"buffer":0,"byteOffset":5184,"byteLength":384,"target":34962,"byteStride":8},{"buffer":0,"byteOffset":5568,"byteLength":384,"target":34962,"byteStride":8},{"buffer":0,"byteOffset":5952,"byteLength":96,"target":34963},{"buffer":0,"byteOffset":6048,"byteLength":576,"target":34962,"byteStride":12},{"buffer":0,"byteOffset":6624,"byteLength":576,"target":34962,"byteStride":12},{"buffer":0,"byteOffset":7200,"byteLength":384,"target":34962,"byteStride":8},{"buffer":0,"byteOffset":7584,"byteLength":384,"target":34962,"byteStride":8},{"buffer":0,"byteOffset":7968,"byteLength":96,"target":34963},{"buffer":0,"byteOffset":8064,"byteLength":3240,"target":34962,"byteStride":12},{"buffer":0,"byteOffset":11304,"byteLength":3240,"target":34962,"byteStride":12},{"buffer":0,"byteOffset":14544,"byteLength":2160,"target":34962,"byteStride":8},{"buffer":0,"byteOffset":16704,"byteLength":2160,"target":34962,"byteStride":8},{"buffer":0,"byteOffset":18864,"byteLength":540,"target":34963}],"buffers":[{"byteLength":19404,"uri":"data:application/octet-stream;base64,"}],"accessors":[{"bufferView":0,"componentType":5126,"count":48,"max":[1,0,1],"min":[-1,-0.5,-1],"type":"VEC3"},{"bufferView":1,"componentType":5126,"count":48,"max":[1,0.8164966106414795,1],"min":[-1,0,-1],"type":"VEC3"},{"bufferView":2,"componentType":5126,"count":48,"max":[0.5390625,0.5390625],"min":[0.4765625,0.4765625],"type":"VEC2"},{"bufferView":3,"componentType":5126,"count":48,"max":[-1,0],"min":[-1,0],"type":"VEC2"},{"bufferView":4,"componentType":5123,"count":48,"max":[47],"min":[0],"type":"SCALAR"},{"bufferView":5,"componentType":5126,"count":48,"max":[1,0,1],"min":[-1,-0.5,-1],"type":"VEC3"},{"bufferView":6,"componentType":5126,"count":48,"max":[1,0.8164966106414795,1],"min":[-1,0,-1],"type":"VEC3"},{"bufferView":7,"componentType":5126,"count":48,"max":[0.5390625,0.5390625],"min":[0.4765625,0.4765625],"type":"VEC2"},{"bufferView":8,"componentType":5126,"count":48,"max":[-1,0],"min":[-1,0],"type":"VEC2"},{"bufferView":9,"componentType":5123,"count":48,"max":[47],"min":[0],"type":"SCALAR"},{"bufferView":10,"componentType":5126,"count":48,"max":[1,0,1],"min":[-1,-0.5,-1],"type":"VEC3"},{"bufferView":11,"componentType":5126,"count":48,"max":[1,0.8164966106414795,1],"min":[-1,0,-1],"type":"VEC3"},{"bufferView":12,"componentType":5126,"count":48,"max":[0.5390625,0.5390625],"min":[0.4765625,0.4765625],"type":"VEC2"},{"bufferView":13,"componentType":5126,"count":48,"max":[-1,0],"min":[-1,0],"type":"VEC2"},{"bufferView":14,"componentType":5123,"count":48,"max":[47],"min":[0],"type":"SCALAR"},{"bufferView":15,"componentType":5126,"count":48,"max":[1,0,1],"min":[-1,-0.5,-1],"type":"VEC3"},{"bufferView":16,"componentType":5126,"count":48,"max":[1,0.8164966106414795,1],"min":[-1,0,-1],"type":"VEC3"},{"bufferView":17,"componentType":5126,"count":48,"max":[0.5390625,0.5390625],"min":[0.4765625,0.4765625],"type":"VEC2"},{"bufferView":18,"componentType":5126,"count":48,"max":[-1,0],"min":[-1,0],"type":"VEC2"},{"bufferView":19,"componentType":5123,"count":48,"max":[47],"min":[0],"type":"SCALAR"},{"bufferView":20,"componentType":5126,"count":270,"max":[5,2.220446049250313e-16,5],"min":[0,-1,0],"type":"VEC3"},{"bufferView":21,"componentType":5126,"count":270,"max":[1,1,1],"min":[-1,0,-1],"type":"VEC3"},{"bufferView":22,"componentType":5126,"count":270,"max":[0.4609375,0.5390625],"min":[0.3984375,0.4765625],"type":"VEC2"},{"bufferView":23,"componentType":5126,"count":270,"max":[-1,0],"min":[-1,0],"type":"VEC2"},{"bufferView":24,"componentType":5123,"count":270,"max":[269],"min":[0],"type":"SCALAR"}],"materials":[{"pbrMetallicRoughness":{"metallicFactor":0.5,"roughnessFactor":0.5,"baseColorTexture":{"index":0}},"alphaMode":"MASK","alphaCutoff":0.01,"doubleSided":true,"name":"texture_0"}],"textures":[{"sampler":0,"source":0,"name":"texture_0"}],"samplers":[{"magFilter":9728,"minFilter":9728,"wrapS":33071,"wrapT":33071}],"images":[{"mimeType":"image/png","uri":"texture_0.png"}],"meshes":[{"primitives":[{"mode":4,"attributes":{"POSITION":0,"NORMAL":1,"TEXCOORD_0":2,"_UVANIMATION":3},"indices":4,"material":0}]},{"primitives":[{"mode":4,"attributes":{"POSITION":5,"NORMAL":6,"TEXCOORD_0":7,"_UVANIMATION":8},"indices":9,"material":0}]},{"primitives":[{"mode":4,"attributes":{"POSITION":10,"NORMAL":11,"TEXCOORD_0":12,"_UVANIMATION":13},"indices":14,"material":0}]},{"primitives":[{"mode":4,"attributes":{"POSITION":15,"NORMAL":16,"TEXCOORD_0":17,"_UVANIMATION":18},"indices":19,"material":0}]},{"primitives":[{"mode":4,"attributes":{"POSITION":20,"NORMAL":21,"TEXCOORD_0":22,"_UVANIMATION":23},"indices":24,"material":0}]}]}