{"asset":{"version":"2.0","generator":"THREE.GLTFExporter"},"scenes":[{"name":"default","nodes":[0,1,2]}],"scene":0,"nodes":[{"matrix":[1,0,0,0,0,1,0,0,0,0,1,0,-6,0,-5,1],"name":"GroundGravel","extras":{"data":{"name":"GroundGravel","points":[{"name":"Origin","pos":{"x":0,"y":0,"z":0}}],"billboard":{"enabled":false,"y":false},"custom":[],"instance":{"name":"GroundGravel","uuid":"90240A80-FD8E-4DB9-A089-E82322F4CFB0","parent":null,"pos":{"x":-6,"y":0,"z":-5},"rot":{"x":0,"y":0,"z":0,"order":"XYZ"},"sca":{"x":1,"y":1,"z":1},"custom":[]}}},"mesh":0},{"matrix":[1,0,0,0,0,1,0,0,0,0,1,0,-5.25,0.5,-1,1],"name":"GravelRock","extras":{"data":{"name":"GravelRock","points":[{"name":"Origin","pos":{"x":0,"y":0,"z":0}}],"billboard":{"enabled":false,"y":false},"custom":[],"instance":{"name":"GravelRock","uuid":"0144DB2E-2888-4E6D-A5BD-733B58F052F0","parent":null,"pos":{"x":-5.25,"y":0.5,"z":-1},"rot":{"x":0,"y":0,"z":0,"order":"XYZ"},"sca":{"x":1,"y":1,"z":1},"custom":[]}}},"mesh":1},{"matrix":[2.220446049250313e-16,4.440892098500625e-16,1,0,0,1,-4.440892098500625e-16,0,-1,7.395570986446986e-32,2.220446049250313e-16,0,-1.5,0.5,-4.25,1],"name":"GravelRock","extras":{"data":{"name":"GravelRock","points":[{"name":"Origin","pos":{"x":0,"y":0,"z":0}}],"billboard":{"enabled":false,"y":false},"custom":[],"instance":{"name":"GravelRock","uuid":"C737E64E-B835-4908-B144-CA84B75A85AF","parent":null,"pos":{"x":-1.5,"y":0.5,"z":-4.25},"rot":{"x":-4.4408920985006257e-16,"y":-1.5707963267948966,"z":0,"order":"XYZ"},"sca":{"x":1,"y":1,"z":1},"custom":[]}}},"mesh":2}],"bufferViews":[{"buffer":0,"byteOffset":0,"byteLength":3528,"target":34962,"byteStride":12},{"buffer":0,"byteOffset":3528,"byteLength":3528,"target":34962,"byteStride":12},{"buffer":0,"byteOffset":7056,"byteLength":2352,"target":34962,"byteStride":8},{"buffer":0,"byteOffset":9408,"byteLength":2352,"target":34962,"byteStride":8},{"buffer":0,"byteOffset":11760,"byteLength":588,"target":34963},{"buffer":0,"byteOffset":12348,"byteLength":360,"target":34962,"byteStride":12},{"buffer":0,"byteOffset":12708,"byteLength":360,"target":34962,"byteStride":12},{"buffer":0,"byteOffset":13068,"byteLength":240,"target":34962,"byteStride":8},{"buffer":0,"byteOffset":13308,"byteLength":240,"target":34962,"byteStride":8},{"buffer":0,"byteOffset":13548,"byteLength":60,"target":34963},{"buffer":0,"byteOffset":13608,"byteLength":360,"target":34962,"byteStride":12},{"buffer":0,"byteOffset":13968,"byteLength":360,"target":34962,"byteStride":12},{"buffer":0,"byteOffset":14328,"byteLength":240,"target":34962,"byteStride":8},{"buffer":0,"byteOffset":14568,"byteLength":240,"target":34962,"byteStride":8},{"buffer":0,"byteOffset":14808,"byteLength":60,"target":34963}],"buffers":[{"byteLength":14868,"uri":"data:application/octet-stream;base64,"}],"accessors":[{"bufferView":0,"componentType":5126,"count":294,"max":[5,0,5],"min":[0,-6,0],"type":"VEC3"},{"bufferView":1,"componentType":5126,"count":294,"max":[1,1,1],"min":[-1,0,-1],"type":"VEC3"},{"bufferView":2,"componentType":5126,"count":294,"max":[0.4609375,0.2265625],"min":[0.3984375,0.0078125],"type":"VEC2"},{"bufferView":3,"componentType":5126,"count":294,"max":[-1,0],"min":[-1,0],"type":"VEC2"},{"bufferView":4,"componentType":5123,"count":294,"max":[293],"min":[0],"type":"SCALAR"},{"bufferView":5,"componentType":5126,"count":30,"max":[0.5,0,0.75],"min":[-0.5,-0.5,-0.25],"type":"VEC3"},{"bufferView":6,"componentType":5126,"count":30,"max":[1,1,0.8728715777397156],"min":[-0.9045340418815613,0,-0.8017837405204773],"type":"VEC3"},{"bufferView":7,"componentType":5126,"count":30,"max":[0.5390625,0.2265625],"min":[0.4765625,0.1640625],"type":"VEC2"},{"bufferView":8,"componentType":5126,"count":30,"max":[-1,0],"min":[-1,0],"type":"VEC2"},{"bufferView":9,"componentType":5123,"count":30,"max":[29],"min":[0],"type":"SCALAR"},{"bufferView":10,"componentType":5126,"count":30,"max":[0.5,0,0.75],"min":[-0.5,-0.5,-0.25],"type":"VEC3"},{"bufferView":11,"componentType":5126,"count":30,"max":[1,1,0.8728715777397156],"min":[-0.9045340418815613,0,-0.8017837405204773],"type":"VEC3"},{"bufferView":12,"componentType":5126,"count":30,"max":[0.5390625,0.2265625],"min":[0.4765625,0.1640625],"type":"VEC2"},{"bufferView":13,"componentType":5126,"count":30,"max":[-1,0],"min":[-1,0],"type":"VEC2"},{"bufferView":14,"componentType":5123,"count":30,"max":[29],"min":[0],"type":"SCALAR"}],"materials":[{"pbrMetallicRoughness":{"metallicFactor":0.5,"roughnessFactor":0.5,"baseColorTexture":{"index":0}},"alphaMode":"MASK","alphaCutoff":0.01,"name":"texture_0"}],"textures":[{"sampler":0,"source":0,"name":"texture_0"}],"samplers":[{"magFilter":9728,"minFilter":9728,"wrapS":33071,"wrapT":33071}],"images":[{"mimeType":"image/png","uri":"texture_0.png"}],"meshes":[{"primitives":[{"mode":4,"attributes":{"POSITION":0,"NORMAL":1,"TEXCOORD_0":2,"_UVANIMATION":3},"indices":4,"material":0}]},{"primitives":[{"mode":4,"attributes":{"POSITION":5,"NORMAL":6,"TEXCOORD_0":7,"_UVANIMATION":8},"indices":9,"material":0}]},{"primitives":[{"mode":4,"attributes":{"POSITION":10,"NORMAL":11,"TEXCOORD_0":12,"_UVANIMATION":13},"indices":14,"material":0}]}]}