{"asset":{"version":"2.0","generator":"THREE.GLTFExporter"},"scenes":[{"name":"default","nodes":[0,1,2]}],"scene":0,"nodes":[{"matrix":[1,0,0,0,0,1,0,0,0,0,1,0,2.5,-0.5,-8.5,1],"name":"GroundOcean","extras":{"data":{"name":"GroundOcean","points":[{"name":"Origin","pos":{"x":0,"y":0,"z":0}}],"billboard":{"enabled":false,"y":false},"custom":[],"instance":{"name":"GroundOcean","uuid":"856B84E1-298D-4B55-A76D-4B7E27235DA7","parent":null,"pos":{"x":2.5,"y":-0.5,"z":-8.5},"rot":{"x":0,"y":0,"z":0,"order":"XYZ"},"sca":{"x":1,"y":1,"z":1},"custom":[]}}},"mesh":0},{"matrix":[2.220446049250313e-16,4.930380657631324e-32,1,0,0,1,-4.930380657631324e-32,0,-1,1.0947644252537633e-47,2.220446049250313e-16,0,4,-0.49375,-10,1],"name":"Lilypad02","extras":{"data":{"name":"Lilypad","points":[{"name":"Origin","pos":{"x":0,"y":0,"z":0}}],"billboard":{"enabled":false,"y":false},"custom":[],"instance":{"name":"Lilypad02","uuid":"B454C227-5B64-4025-8CD0-A71D3F88CB60","parent":null,"pos":{"x":4,"y":-0.495,"z":-10},"rot":{"x":-4.930380657631324e-32,"y":-1.5707963267948966,"z":0,"order":"XYZ"},"sca":{"x":1,"y":1,"z":1},"custom":[]}}},"mesh":1},{"matrix":[1,0,0,0,0,1,0,0,0,0,1,0,1,-0.49375,-7,1],"name":"Lilypad01","extras":{"data":{"name":"Lilypad","points":[{"name":"Origin","pos":{"x":0,"y":0,"z":0}}],"billboard":{"enabled":false,"y":false},"custom":[],"instance":{"name":"Lilypad01","uuid":"A0B05111-40CD-48B3-8B9D-3A0AAA633CB8","parent":null,"pos":{"x":1,"y":-0.495,"z":-7},"rot":{"x":0,"y":0,"z":0,"order":"XYZ"},"sca":{"x":1,"y":1,"z":1},"custom":[]}}},"mesh":2}],"bufferViews":[{"buffer":0,"byteOffset":0,"byteLength":3240,"target":34962,"byteStride":12},{"buffer":0,"byteOffset":3240,"byteLength":3240,"target":34962,"byteStride":12},{"buffer":0,"byteOffset":6480,"byteLength":2160,"target":34962,"byteStride":8},{"buffer":0,"byteOffset":8640,"byteLength":2160,"target":34962,"byteStride":8},{"buffer":0,"byteOffset":10800,"byteLength":540,"target":34963},{"buffer":0,"byteOffset":11340,"byteLength":72,"target":34962,"byteStride":12},{"buffer":0,"byteOffset":11412,"byteLength":72,"target":34962,"byteStride":12},{"buffer":0,"byteOffset":11484,"byteLength":48,"target":34962,"byteStride":8},{"buffer":0,"byteOffset":11532,"byteLength":48,"target":34962,"byteStride":8},{"buffer":0,"byteOffset":11580,"byteLength":12,"target":34963},{"buffer":0,"byteOffset":11592,"byteLength":72,"target":34962,"byteStride":12},{"buffer":0,"byteOffset":11664,"byteLength":72,"target":34962,"byteStride":12},{"buffer":0,"byteOffset":11736,"byteLength":48,"target":34962,"byteStride":8},{"buffer":0,"byteOffset":11784,"byteLength":48,"target":34962,"byteStride":8},{"buffer":0,"byteOffset":11832,"byteLength":12,"target":34963}],"buffers":[{"byteLength":11844,"uri":"data:application/octet-stream;base64,"}],"accessors":[{"bufferView":0,"componentType":5126,"count":270,"max":[2.5,0.000435785943409428,2.5000500679016113],"min":[-2.5,-0.5,-2.5],"type":"VEC3"},{"bufferView":1,"componentType":5126,"count":270,"max":[1,1,1],"min":[-1,-0.00010014790314016864,-0.9999998807907104],"type":"VEC3"},{"bufferView":2,"componentType":5126,"count":270,"max":[0.0703125,0.2734375],"min":[0.0078125,0.1640625],"type":"VEC2"},{"bufferView":3,"componentType":5126,"count":270,"max":[-1,0],"min":[-1,0],"type":"VEC2"},{"bufferView":4,"componentType":5123,"count":270,"max":[269],"min":[0],"type":"SCALAR"},{"bufferView":5,"componentType":5126,"count":6,"max":[0.5000499486923218,0.00005751518619945273,0.5],"min":[-0.49994999170303345,-0.00004250140773365274,-0.5],"type":"VEC3"},{"bufferView":6,"componentType":5126,"count":6,"max":[0.00010001660120906308,1,0],"min":[0.00010001660120906308,1,0],"type":"VEC3"},{"bufferView":7,"componentType":5126,"count":6,"max":[0.1484375,0.2265625],"min":[0.0859375,0.1640625],"type":"VEC2"},{"bufferView":8,"componentType":5126,"count":6,"max":[-1,0],"min":[-1,0],"type":"VEC2"},{"bufferView":9,"componentType":5123,"count":6,"max":[5],"min":[0],"type":"SCALAR"},{"bufferView":10,"componentType":5126,"count":6,"max":[0.5000499486923218,0.00005751518619945273,0.5],"min":[-0.49994999170303345,-0.00004250140773365274,-0.5],"type":"VEC3"},{"bufferView":11,"componentType":5126,"count":6,"max":[0.00010001660120906308,1,0],"min":[0.00010001660120906308,1,0],"type":"VEC3"},{"bufferView":12,"componentType":5126,"count":6,"max":[0.1484375,0.2265625],"min":[0.0859375,0.1640625],"type":"VEC2"},{"bufferView":13,"componentType":5126,"count":6,"max":[-1,0],"min":[-1,0],"type":"VEC2"},{"bufferView":14,"componentType":5123,"count":6,"max":[5],"min":[0],"type":"SCALAR"}],"materials":[{"pbrMetallicRoughness":{"metallicFactor":0.5,"roughnessFactor":0.5,"baseColorTexture":{"index":0}},"alphaMode":"MASK","alphaCutoff":0.01,"name":"texture_0"}],"textures":[{"sampler":0,"source":0,"name":"texture_0"}],"samplers":[{"magFilter":9728,"minFilter":9728,"wrapS":33071,"wrapT":33071}],"images":[{"mimeType":"image/png","uri":"texture_0.png"}],"meshes":[{"primitives":[{"mode":4,"attributes":{"POSITION":0,"NORMAL":1,"TEXCOORD_0":2,"_UVANIMATION":3},"indices":4,"material":0}]},{"primitives":[{"mode":4,"attributes":{"POSITION":5,"NORMAL":6,"TEXCOORD_0":7,"_UVANIMATION":8},"indices":9,"material":0}]},{"primitives":[{"mode":4,"attributes":{"POSITION":10,"NORMAL":11,"TEXCOORD_0":12,"_UVANIMATION":13},"indices":14,"material":0}]}]}