{"asset":{"version":"2.0","generator":"THREE.GLTFExporter"},"scenes":[{"name":"default","nodes":[0]}],"scene":0,"nodes":[{"matrix":[1,0,0,0,0,1,0,0,0,0,1,0,-6,0,-11,1],"name":"GroundGod","extras":{"data":{"name":"GroundGod","points":[{"name":"Origin","pos":{"x":0,"y":0,"z":0}}],"billboard":{"enabled":false,"y":false},"custom":[],"instance":{"name":"GroundGod","uuid":"92CAD4AB-94AA-495A-9087-4F9A61F4818C","parent":null,"pos":{"x":-6,"y":0,"z":-11},"rot":{"x":0,"y":0,"z":0,"order":"XYZ"},"sca":{"x":1,"y":1,"z":1},"custom":[]}}},"mesh":0}],"bufferViews":[{"buffer":0,"byteOffset":0,"byteLength":3240,"target":34962,"byteStride":12},{"buffer":0,"byteOffset":3240,"byteLength":3240,"target":34962,"byteStride":12},{"buffer":0,"byteOffset":6480,"byteLength":2160,"target":34962,"byteStride":8},{"buffer":0,"byteOffset":8640,"byteLength":2160,"target":34962,"byteStride":8},{"buffer":0,"byteOffset":10800,"byteLength":540,"target":34963}],"buffers":[{"byteLength":11340,"uri":"data:application/octet-stream;base64,"}],"accessors":[{"bufferView":0,"componentType":5126,"count":270,"max":[5,2.220446049250313e-16,5],"min":[0,-1,0],"type":"VEC3"},{"bufferView":1,"componentType":5126,"count":270,"max":[1,1,1],"min":[-1,0,-1],"type":"VEC3"},{"bufferView":2,"componentType":5126,"count":270,"max":[0.4609375,0.3046875],"min":[0.3984375,0.2421875],"type":"VEC2"},{"bufferView":3,"componentType":5126,"count":270,"max":[-1,0],"min":[-1,0],"type":"VEC2"},{"bufferView":4,"componentType":5123,"count":270,"max":[269],"min":[0],"type":"SCALAR"}],"materials":[{"pbrMetallicRoughness":{"metallicFactor":0.5,"roughnessFactor":0.5,"baseColorTexture":{"index":0}},"alphaMode":"MASK","alphaCutoff":0.01,"name":"texture_0"}],"textures":[{"sampler":0,"source":0,"name":"texture_0"}],"samplers":[{"magFilter":9728,"minFilter":9728,"wrapS":33071,"wrapT":33071}],"images":[{"mimeType":"image/png","uri":"texture_0.png"}],"meshes":[{"primitives":[{"mode":4,"attributes":{"POSITION":0,"NORMAL":1,"TEXCOORD_0":2,"_UVANIMATION":3},"indices":4,"material":0}]}]}