{"asset":{"version":"2.0","generator":"THREE.GLTFExporter"},"scenes":[{"name":"default","nodes":[0,1,2,3,4]}],"scene":0,"nodes":[{"matrix":[1,0,0,0,0,1,0,0,0,0,1,0,-2,0.5,-2.5,1],"name":"GravelWest","extras":{"data":{"name":"GravelConnecting","points":[{"name":"Origin","pos":{"x":0,"y":0,"z":0}}],"billboard":{"enabled":false,"y":false},"custom":[],"instance":{"name":"GravelWest","uuid":"03E4CCCD-44EE-44D7-B44E-BFDE45980A81","parent":null,"pos":{"x":-2,"y":0.5,"z":-2.5},"rot":{"x":0,"y":0,"z":0,"order":"XYZ"},"sca":{"x":1,"y":1,"z":1},"custom":[]}}},"mesh":0},{"matrix":[-1,1.2246467991473532e-16,-1.2246467991473532e-16,0,1.2246467991473532e-16,1,1.2246467991473532e-16,0,1.2246467991473532e-16,1.2246467991473532e-16,-1,0,-5,0.5,-2.499999999999999,1],"name":"GravelEast","extras":{"data":{"name":"GravelConnecting","points":[{"name":"Origin","pos":{"x":0,"y":0,"z":0}}],"billboard":{"enabled":false,"y":false},"custom":[],"instance":{"name":"GravelEast","uuid":"C21CBAE1-1524-4E72-BFBB-FEDF0CC84D90","parent":null,"pos":{"x":-5,"y":0.5,"z":-2.5},"rot":{"x":-3.141592653589793,"y":1.2246467991473532e-16,"z":-3.141592653589793,"order":"XYZ"},"sca":{"x":1,"y":1,"z":1},"custom":[]}}},"mesh":1},{"matrix":[2.220446049250313e-16,0,-1,0,0,1,0,0,1,0,2.220446049250313e-16,0,-3.5,0.5,-4,1],"name":"GravelSouth","extras":{"data":{"name":"GravelConnecting","points":[{"name":"Origin","pos":{"x":0,"y":0,"z":0}}],"billboard":{"enabled":false,"y":false},"custom":[],"instance":{"name":"GravelSouth","uuid":"F0B963BD-91BC-4D4E-9C17-21268ED4D8EF","parent":null,"pos":{"x":-3.5,"y":0.5,"z":-4},"rot":{"x":0,"y":1.5707963267948966,"z":0,"order":"XYZ"},"sca":{"x":1,"y":1,"z":1},"custom":[]}}},"mesh":2},{"matrix":[2.220446049250313e-16,1.2246467991473532e-16,1,0,0,1,-1.2246467991473532e-16,0,-1,2.465190328815662e-32,2.220446049250313e-16,0,-3.499999999999999,0.5,-1,1],"name":"GravelNorth","extras":{"data":{"name":"GravelConnecting","points":[{"name":"Origin","pos":{"x":0,"y":0,"z":0}}],"billboard":{"enabled":false,"y":false},"custom":[],"instance":{"name":"GravelNorth","uuid":"4D5C6063-F09F-46A1-8202-0F8BB1B48FC5","parent":null,"pos":{"x":-3.5,"y":0.5,"z":-1},"rot":{"x":-1.2246467991473532e-16,"y":-1.5707963267948966,"z":0,"order":"XYZ"},"sca":{"x":1,"y":1,"z":1},"custom":[]}}},"mesh":3},{"matrix":[1,0,0,0,0,1,0,0,0,0,1,0,-3.5,0.5,-2.5,1],"name":"GravelFourJunction","extras":{"data":{"name":"GravelFourJunction","points":[{"name":"Origin","pos":{"x":0,"y":0,"z":0}}],"billboard":{"enabled":false,"y":false},"custom":[],"instance":{"name":"GravelFourJunction","uuid":"C8834AD3-ABC3-4689-B642-2A4304634694","parent":null,"pos":{"x":-3.5,"y":0.5,"z":-2.5},"rot":{"x":0,"y":0,"z":0,"order":"XYZ"},"sca":{"x":1,"y":1,"z":1},"custom":[]}}},"mesh":4}],"bufferViews":[{"buffer":0,"byteOffset":0,"byteLength":288,"target":34962,"byteStride":12},{"buffer":0,"byteOffset":288,"byteLength":288,"target":34962,"byteStride":12},{"buffer":0,"byteOffset":576,"byteLength":192,"target":34962,"byteStride":8},{"buffer":0,"byteOffset":768,"byteLength":192,"target":34962,"byteStride":8},{"buffer":0,"byteOffset":960,"byteLength":48,"target":34963},{"buffer":0,"byteOffset":1008,"byteLength":288,"target":34962,"byteStride":12},{"buffer":0,"byteOffset":1296,"byteLength":288,"target":34962,"byteStride":12},{"buffer":0,"byteOffset":1584,"byteLength":192,"target":34962,"byteStride":8},{"buffer":0,"byteOffset":1776,"byteLength":192,"target":34962,"byteStride":8},{"buffer":0,"byteOffset":1968,"byteLength":48,"target":34963},{"buffer":0,"byteOffset":2016,"byteLength":288,"target":34962,"byteStride":12},{"buffer":0,"byteOffset":2304,"byteLength":288,"target":34962,"byteStride":12},{"buffer":0,"byteOffset":2592,"byteLength":192,"target":34962,"byteStride":8},{"buffer":0,"byteOffset":2784,"byteLength":192,"target":34962,"byteStride":8},{"buffer":0,"byteOffset":2976,"byteLength":48,"target":34963},{"buffer":0,"byteOffset":3024,"byteLength":288,"target":34962,"byteStride":12},{"buffer":0,"byteOffset":3312,"byteLength":288,"target":34962,"byteStride":12},{"buffer":0,"byteOffset":3600,"byteLength":192,"target":34962,"byteStride":8},{"buffer":0,"byteOffset":3792,"byteLength":192,"target":34962,"byteStride":8},{"buffer":0,"byteOffset":3984,"byteLength":48,"target":34963},{"buffer":0,"byteOffset":4032,"byteLength":288,"target":34962,"byteStride":12},{"buffer":0,"byteOffset":4320,"byteLength":288,"target":34962,"byteStride":12},{"buffer":0,"byteOffset":4608,"byteLength":192,"target":34962,"byteStride":8},{"buffer":0,"byteOffset":4800,"byteLength":192,"target":34962,"byteStride":8},{"buffer":0,"byteOffset":4992,"byteLength":48,"target":34963}],"buffers":[{"byteLength":5040,"uri":"data:application/octet-stream;base64,"}],"accessors":[{"bufferView":0,"componentType":5126,"count":24,"max":[1,0,1],"min":[-0.5,0,-1],"type":"VEC3"},{"bufferView":1,"componentType":5126,"count":24,"max":[0,1,0],"min":[0,1,0],"type":"VEC3"},{"bufferView":2,"componentType":5126,"count":24,"max":[0.5390625,0.0703125],"min":[0.4765625,0.0078125],"type":"VEC2"},{"bufferView":3,"componentType":5126,"count":24,"max":[-1,0],"min":[-1,0],"type":"VEC2"},{"bufferView":4,"componentType":5123,"count":24,"max":[23],"min":[0],"type":"SCALAR"},{"bufferView":5,"componentType":5126,"count":24,"max":[1,0,1],"min":[-0.5,0,-1],"type":"VEC3"},{"bufferView":6,"componentType":5126,"count":24,"max":[0,1,0],"min":[0,1,0],"type":"VEC3"},{"bufferView":7,"componentType":5126,"count":24,"max":[0.5390625,0.0703125],"min":[0.4765625,0.0078125],"type":"VEC2"},{"bufferView":8,"componentType":5126,"count":24,"max":[-1,0],"min":[-1,0],"type":"VEC2"},{"bufferView":9,"componentType":5123,"count":24,"max":[23],"min":[0],"type":"SCALAR"},{"bufferView":10,"componentType":5126,"count":24,"max":[1,0,1],"min":[-0.5,0,-1],"type":"VEC3"},{"bufferView":11,"componentType":5126,"count":24,"max":[0,1,0],"min":[0,1,0],"type":"VEC3"},{"bufferView":12,"componentType":5126,"count":24,"max":[0.5390625,0.0703125],"min":[0.4765625,0.0078125],"type":"VEC2"},{"bufferView":13,"componentType":5126,"count":24,"max":[-1,0],"min":[-1,0],"type":"VEC2"},{"bufferView":14,"componentType":5123,"count":24,"max":[23],"min":[0],"type":"SCALAR"},{"bufferView":15,"componentType":5126,"count":24,"max":[1,0,1],"min":[-0.5,0,-1],"type":"VEC3"},{"bufferView":16,"componentType":5126,"count":24,"max":[0,1,0],"min":[0,1,0],"type":"VEC3"},{"bufferView":17,"componentType":5126,"count":24,"max":[0.5390625,0.0703125],"min":[0.4765625,0.0078125],"type":"VEC2"},{"bufferView":18,"componentType":5126,"count":24,"max":[-1,0],"min":[-1,0],"type":"VEC2"},{"bufferView":19,"componentType":5123,"count":24,"max":[23],"min":[0],"type":"SCALAR"},{"bufferView":20,"componentType":5126,"count":24,"max":[1,0.00003636689143604599,1],"min":[-1,-0.00012071092351106927,-1],"type":"VEC3"},{"bufferView":21,"componentType":5126,"count":24,"max":[0.00005708067328669131,1,0.0001570699387229979],"min":[-0.000057074961659964174,1,-0.00005708067328669131],"type":"VEC3"},{"bufferView":22,"componentType":5126,"count":24,"max":[0.6171875,0.0703125],"min":[0.5546875,0.0078125],"type":"VEC2"},{"bufferView":23,"componentType":5126,"count":24,"max":[-1,0],"min":[-1,0],"type":"VEC2"},{"bufferView":24,"componentType":5123,"count":24,"max":[23],"min":[0],"type":"SCALAR"}],"materials":[{"pbrMetallicRoughness":{"metallicFactor":0.5,"roughnessFactor":0.5,"baseColorTexture":{"index":0}},"alphaMode":"MASK","alphaCutoff":0.01,"name":"texture_0"}],"textures":[{"sampler":0,"source":0,"name":"texture_0"}],"samplers":[{"magFilter":9728,"minFilter":9728,"wrapS":33071,"wrapT":33071}],"images":[{"mimeType":"image/png","uri":"texture_0.png"}],"meshes":[{"primitives":[{"mode":4,"attributes":{"POSITION":0,"NORMAL":1,"TEXCOORD_0":2,"_UVANIMATION":3},"indices":4,"material":0}]},{"primitives":[{"mode":4,"attributes":{"POSITION":5,"NORMAL":6,"TEXCOORD_0":7,"_UVANIMATION":8},"indices":9,"material":0}]},{"primitives":[{"mode":4,"attributes":{"POSITION":10,"NORMAL":11,"TEXCOORD_0":12,"_UVANIMATION":13},"indices":14,"material":0}]},{"primitives":[{"mode":4,"attributes":{"POSITION":15,"NORMAL":16,"TEXCOORD_0":17,"_UVANIMATION":18},"indices":19,"material":0}]},{"primitives":[{"mode":4,"attributes":{"POSITION":20,"NORMAL":21,"TEXCOORD_0":22,"_UVANIMATION":23},"indices":24,"material":0}]}]}