{"asset":{"version":"2.0","generator":"THREE.GLTFExporter"},"scenes":[{"name":"default","nodes":[0,1,2,3,4]}],"scene":0,"nodes":[{"matrix":[1,0,0,0,0,1,0,0,0,0,1,0,-1,0.5,-8,1],"name":"GodNorth","extras":{"data":{"name":"GodNorth","points":[{"name":"Origin","pos":{"x":0,"y":0,"z":0}}],"billboard":{"enabled":false,"y":false},"custom":[],"instance":{"name":"GodNorth","uuid":"B423CF85-2B93-427E-A718-9D18C59AF671","parent":null,"pos":{"x":-1,"y":0.5,"z":-8},"rot":{"x":0,"y":0,"z":0,"order":"XYZ"},"sca":{"x":1,"y":1,"z":1},"custom":[]}}},"mesh":0},{"matrix":[1,0,0,0,0,1,0,0,0,0,1,0,-1,0.5,-8,1],"name":"GodSouth","extras":{"data":{"name":"GodSouth","points":[{"name":"Origin","pos":{"x":0,"y":0,"z":0}}],"billboard":{"enabled":false,"y":false},"custom":[],"instance":{"name":"GodSouth","uuid":"5F97418C-A16A-4BEB-98C7-16B08ED52809","parent":null,"pos":{"x":-1,"y":0.5,"z":-8},"rot":{"x":0,"y":0,"z":0,"order":"XYZ"},"sca":{"x":1,"y":1,"z":1},"custom":[]}}},"mesh":1},{"matrix":[1,0,0,0,0,1,0,0,0,0,1,0,-1,0.5,-8,1],"name":"GodEast","extras":{"data":{"name":"GodEast","points":[{"name":"Origin","pos":{"x":0,"y":0,"z":0}}],"billboard":{"enabled":false,"y":false},"custom":[],"instance":{"name":"GodEast","uuid":"802EC5E6-61FA-4F87-BC1C-22877F3C1584","parent":null,"pos":{"x":-1,"y":0.5,"z":-8},"rot":{"x":0,"y":0,"z":0,"order":"XYZ"},"sca":{"x":1,"y":1,"z":1},"custom":[]}}},"mesh":2},{"matrix":[1,0,0,0,0,1,0,0,0,0,1,0,-1,0.5,-8,1],"name":"GodWest","extras":{"data":{"name":"GodWest","points":[{"name":"Origin","pos":{"x":0,"y":0,"z":0}}],"billboard":{"enabled":false,"y":false},"custom":[],"instance":{"name":"GodWest","uuid":"6ADC3890-AE5B-420B-84D9-E7453E4A42B3","parent":null,"pos":{"x":-1,"y":0.5,"z":-8},"rot":{"x":0,"y":0,"z":0,"order":"XYZ"},"sca":{"x":1,"y":1,"z":1},"custom":[]}}},"mesh":3},{"matrix":[1,0,0,0,0,1,0,0,0,0,1,0,-1,0.5,-8,1],"name":"GodFourJunction","extras":{"data":{"name":"GodFourJunction","points":[{"name":"Origin","pos":{"x":0,"y":0,"z":0}}],"billboard":{"enabled":false,"y":false},"custom":[],"instance":{"name":"GodFourJunction","uuid":"EBF11305-EE63-4B0C-87B8-548FBDF08104","parent":null,"pos":{"x":-1,"y":0.5,"z":-8},"rot":{"x":0,"y":0,"z":0,"order":"XYZ"},"sca":{"x":1,"y":1,"z":1},"custom":[]}}},"mesh":4}],"bufferViews":[{"buffer":0,"byteOffset":0,"byteLength":144,"target":34962,"byteStride":12},{"buffer":0,"byteOffset":144,"byteLength":144,"target":34962,"byteStride":12},{"buffer":0,"byteOffset":288,"byteLength":96,"target":34962,"byteStride":8},{"buffer":0,"byteOffset":384,"byteLength":96,"target":34962,"byteStride":8},{"buffer":0,"byteOffset":480,"byteLength":24,"target":34963},{"buffer":0,"byteOffset":504,"byteLength":144,"target":34962,"byteStride":12},{"buffer":0,"byteOffset":648,"byteLength":144,"target":34962,"byteStride":12},{"buffer":0,"byteOffset":792,"byteLength":96,"target":34962,"byteStride":8},{"buffer":0,"byteOffset":888,"byteLength":96,"target":34962,"byteStride":8},{"buffer":0,"byteOffset":984,"byteLength":24,"target":34963},{"buffer":0,"byteOffset":1008,"byteLength":144,"target":34962,"byteStride":12},{"buffer":0,"byteOffset":1152,"byteLength":144,"target":34962,"byteStride":12},{"buffer":0,"byteOffset":1296,"byteLength":96,"target":34962,"byteStride":8},{"buffer":0,"byteOffset":1392,"byteLength":96,"target":34962,"byteStride":8},{"buffer":0,"byteOffset":1488,"byteLength":24,"target":34963},{"buffer":0,"byteOffset":1512,"byteLength":144,"target":34962,"byteStride":12},{"buffer":0,"byteOffset":1656,"byteLength":144,"target":34962,"byteStride":12},{"buffer":0,"byteOffset":1800,"byteLength":96,"target":34962,"byteStride":8},{"buffer":0,"byteOffset":1896,"byteLength":96,"target":34962,"byteStride":8},{"buffer":0,"byteOffset":1992,"byteLength":24,"target":34963},{"buffer":0,"byteOffset":2016,"byteLength":72,"target":34962,"byteStride":12},{"buffer":0,"byteOffset":2088,"byteLength":72,"target":34962,"byteStride":12},{"buffer":0,"byteOffset":2160,"byteLength":48,"target":34962,"byteStride":8},{"buffer":0,"byteOffset":2208,"byteLength":48,"target":34962,"byteStride":8},{"buffer":0,"byteOffset":2256,"byteLength":12,"target":34963}],"buffers":[{"byteLength":2268,"uri":"data:application/octet-stream;base64,"}],"accessors":[{"bufferView":0,"componentType":5126,"count":12,"max":[-2,0,2],"min":[-3,0,0],"type":"VEC3"},{"bufferView":1,"componentType":5126,"count":12,"max":[0,1,0],"min":[0,1,0],"type":"VEC3"},{"bufferView":2,"componentType":5126,"count":12,"max":[0.4609375,0.6171875],"min":[0.3984375,0.5546875],"type":"VEC2"},{"bufferView":3,"componentType":5126,"count":12,"max":[-1,0],"min":[-1,0],"type":"VEC2"},{"bufferView":4,"componentType":5123,"count":12,"max":[11],"min":[0],"type":"SCALAR"},{"bufferView":5,"componentType":5126,"count":12,"max":[-2,2.220446049250313e-16,-1],"min":[-3,2.220446049250313e-16,-3],"type":"VEC3"},{"bufferView":6,"componentType":5126,"count":12,"max":[0,1,0],"min":[0,1,0],"type":"VEC3"},{"bufferView":7,"componentType":5126,"count":12,"max":[0.4609375,0.6171875],"min":[0.3984375,0.5546875],"type":"VEC2"},{"bufferView":8,"componentType":5126,"count":12,"max":[-1,0],"min":[-1,0],"type":"VEC2"},{"bufferView":9,"componentType":5123,"count":12,"max":[11],"min":[0],"type":"SCALAR"},{"bufferView":10,"componentType":5126,"count":12,"max":[-3,2.220446049250313e-16,0],"min":[-5,0,-1],"type":"VEC3"},{"bufferView":11,"componentType":5126,"count":12,"max":[0,1,2.220446049250313e-16],"min":[0,1,2.220446049250313e-16],"type":"VEC3"},{"bufferView":12,"componentType":5126,"count":12,"max":[0.4609375,0.6171875],"min":[0.3984375,0.5546875],"type":"VEC2"},{"bufferView":13,"componentType":5126,"count":12,"max":[-1,0],"min":[-1,0],"type":"VEC2"},{"bufferView":14,"componentType":5123,"count":12,"max":[11],"min":[0],"type":"SCALAR"},{"bufferView":15,"componentType":5126,"count":12,"max":[0,2.220446049250313e-16,0],"min":[-2,0,-1],"type":"VEC3"},{"bufferView":16,"componentType":5126,"count":12,"max":[0,1,2.220446049250313e-16],"min":[0,1,2.220446049250313e-16],"type":"VEC3"},{"bufferView":17,"componentType":5126,"count":12,"max":[0.4609375,0.6171875],"min":[0.3984375,0.5546875],"type":"VEC2"},{"bufferView":18,"componentType":5126,"count":12,"max":[-1,0],"min":[-1,0],"type":"VEC2"},{"bufferView":19,"componentType":5123,"count":12,"max":[11],"min":[0],"type":"SCALAR"},{"bufferView":20,"componentType":5126,"count":6,"max":[-2,2.220446049250313e-16,0],"min":[-3,0,-1],"type":"VEC3"},{"bufferView":21,"componentType":5126,"count":6,"max":[0,1,2.220446049250313e-16],"min":[0,1,2.220446049250313e-16],"type":"VEC3"},{"bufferView":22,"componentType":5126,"count":6,"max":[0.4609375,0.6171875],"min":[0.3984375,0.5546875],"type":"VEC2"},{"bufferView":23,"componentType":5126,"count":6,"max":[-1,0],"min":[-1,0],"type":"VEC2"},{"bufferView":24,"componentType":5123,"count":6,"max":[5],"min":[0],"type":"SCALAR"}],"materials":[{"pbrMetallicRoughness":{"metallicFactor":0.5,"roughnessFactor":0.5,"baseColorTexture":{"index":0}},"alphaMode":"MASK","alphaCutoff":0.01,"doubleSided":true,"name":"texture_0"}],"textures":[{"sampler":0,"source":0,"name":"texture_0"}],"samplers":[{"magFilter":9728,"minFilter":9728,"wrapS":33071,"wrapT":33071}],"images":[{"mimeType":"image/png","uri":"texture_0.png"}],"meshes":[{"primitives":[{"mode":4,"attributes":{"POSITION":0,"NORMAL":1,"TEXCOORD_0":2,"_UVANIMATION":3},"indices":4,"material":0}]},{"primitives":[{"mode":4,"attributes":{"POSITION":5,"NORMAL":6,"TEXCOORD_0":7,"_UVANIMATION":8},"indices":9,"material":0}]},{"primitives":[{"mode":4,"attributes":{"POSITION":10,"NORMAL":11,"TEXCOORD_0":12,"_UVANIMATION":13},"indices":14,"material":0}]},{"primitives":[{"mode":4,"attributes":{"POSITION":15,"NORMAL":16,"TEXCOORD_0":17,"_UVANIMATION":18},"indices":19,"material":0}]},{"primitives":[{"mode":4,"attributes":{"POSITION":20,"NORMAL":21,"TEXCOORD_0":22,"_UVANIMATION":23},"indices":24,"material":0}]}]}