{"asset":{"version":"2.0","generator":"THREE.GLTFExporter"},"scenes":[{"name":"default","nodes":[0,1,2,3,4,5,6,7]}],"scene":0,"nodes":[{"matrix":[1,0,0,0,0,1,0,0,0,0,1,0,4.5,0.006250000000000089,-2.5,1],"name":"North","extras":{"data":{"name":"PathConnecting","points":[{"name":"Origin","pos":{"x":0,"y":0,"z":0}}],"billboard":{"enabled":false,"y":false},"custom":[],"instance":{"name":"North","uuid":"87A254D6-ECFC-4C99-9503-956FFB2873D8","parent":null,"pos":{"x":4.5,"y":0.005,"z":-2.5},"rot":{"x":0,"y":0,"z":0,"order":"XYZ"},"sca":{"x":1,"y":1,"z":1},"custom":[]}}},"mesh":0},{"matrix":[-1,1.2246467991473532e-16,1.2246467991473532e-16,0,1.2246467991473532e-16,1,1.2246467991473532e-16,0,-1.2246467991473532e-16,1.2246467991473532e-16,-1,0,0.5,0.006250000000000177,-2.5,1],"name":"South","extras":{"data":{"name":"PathConnecting","points":[{"name":"Origin","pos":{"x":0,"y":0,"z":0}}],"billboard":{"enabled":false,"y":false},"custom":[],"instance":{"name":"South","uuid":"78EA3B51-52A0-4E9D-AB11-5880BC3CA027","parent":null,"pos":{"x":0.5,"y":0.005,"z":-2.5},"rot":{"x":-3.141592653589793,"y":-1.2246467991473532e-16,"z":-3.141592653589793,"order":"XYZ"},"sca":{"x":1,"y":1,"z":1},"custom":[]}}},"mesh":1},{"matrix":[2.220446049250313e-16,6.785819804331022e-32,1,0,0,1,-6.785819804331022e-32,0,-1,1.0947644252537633e-47,2.220446049250313e-16,0,2.5,0.006250000000000089,-4.5,1],"name":"East","extras":{"data":{"name":"PathConnecting","points":[{"name":"Origin","pos":{"x":0,"y":0,"z":0}}],"billboard":{"enabled":false,"y":false},"custom":[],"instance":{"name":"East","uuid":"A0F87E82-97FC-4879-9417-24EB65519F29","parent":null,"pos":{"x":2.5,"y":0.005,"z":-4.5},"rot":{"x":-6.785819804331022e-32,"y":-1.5707963267948966,"z":0,"order":"XYZ"},"sca":{"x":1,"y":1,"z":1},"custom":[]}}},"mesh":2},{"matrix":[2.220446049250313e-16,0,1,0,0,1,0,0,-1,0,2.220446049250313e-16,0,2.5,0.006250000000000089,-0.5,1],"name":"West","extras":{"data":{"name":"PathConnecting","points":[{"name":"Origin","pos":{"x":0,"y":0,"z":0}}],"billboard":{"enabled":false,"y":false},"custom":[],"instance":{"name":"West","uuid":"2AF16310-A3D6-45BF-ABB6-660E12C87A71","parent":null,"pos":{"x":2.5,"y":0.005,"z":-0.5},"rot":{"x":0,"y":-1.5707963267948966,"z":0,"order":"XYZ"},"sca":{"x":1,"y":1,"z":1},"custom":[]}}},"mesh":3},{"matrix":[1,0,0,0,0,1,0,0,0,0,1,0,2.5,0.006250000000000089,-2.5,1],"name":"PathCorner","extras":{"data":{"name":"PathCorner","points":[{"name":"Origin","pos":{"x":0,"y":0,"z":0}}],"billboard":{"enabled":false,"y":false},"custom":[],"instance":{"name":"PathCorner","uuid":"525B60B7-7993-4FEA-8DCE-5EC1ACD9D2C6","parent":null,"pos":{"x":2.5,"y":0.005,"z":-2.5},"rot":{"x":0,"y":0,"z":0,"order":"XYZ"},"sca":{"x":1,"y":1,"z":1},"custom":[]}}},"mesh":4},{"matrix":[1,0,0,0,0,1,0,0,0,0,1,0,2.5,0.006250000000000089,-2.5,1],"name":"PathTJunction","extras":{"data":{"name":"PathTJunction","points":[{"name":"Origin","pos":{"x":0,"y":0,"z":0}}],"billboard":{"enabled":false,"y":false},"custom":[],"instance":{"name":"PathTJunction","uuid":"9DC54412-96C9-46D9-8866-A25AF4C29F26","parent":null,"pos":{"x":2.5,"y":0.005,"z":-2.5},"rot":{"x":0,"y":0,"z":0,"order":"XYZ"},"sca":{"x":1,"y":1,"z":1},"custom":[]}}},"mesh":5},{"matrix":[1,0,0,0,0,1,0,0,0,0,1,0,2.5,0.006250000000000089,-2.5,1],"name":"PathEnd","extras":{"data":{"name":"PathEnd","points":[{"name":"Origin","pos":{"x":0,"y":0,"z":0}}],"billboard":{"enabled":false,"y":false},"custom":[],"instance":{"name":"PathEnd","uuid":"E9919A4B-7C6E-4679-8983-B7F5DB0052A7","parent":null,"pos":{"x":2.5,"y":0.005,"z":-2.5},"rot":{"x":0,"y":0,"z":0,"order":"XYZ"},"sca":{"x":1,"y":1,"z":1},"custom":[]}}},"mesh":6},{"matrix":[1,0,0,0,0,1,0,0,0,0,1,0,2.5,0.006250000000000089,-2.5,1],"name":"PathFourJunction","extras":{"data":{"name":"PathFourJunction","points":[{"name":"Origin","pos":{"x":0,"y":0,"z":0}}],"billboard":{"enabled":false,"y":false},"custom":[],"instance":{"name":"PathFourJunction","uuid":"C6513413-26E1-4DCA-84AB-92E16C6A4115","parent":null,"pos":{"x":2.5,"y":0.005,"z":-2.5},"rot":{"x":0,"y":0,"z":0,"order":"XYZ"},"sca":{"x":1,"y":1,"z":1},"custom":[]}}},"mesh":7}],"bufferViews":[{"buffer":0,"byteOffset":0,"byteLength":288,"target":34962,"byteStride":12},{"buffer":0,"byteOffset":288,"byteLength":288,"target":34962,"byteStride":12},{"buffer":0,"byteOffset":576,"byteLength":192,"target":34962,"byteStride":8},{"buffer":0,"byteOffset":768,"byteLength":192,"target":34962,"byteStride":8},{"buffer":0,"byteOffset":960,"byteLength":48,"target":34963},{"buffer":0,"byteOffset":1008,"byteLength":288,"target":34962,"byteStride":12},{"buffer":0,"byteOffset":1296,"byteLength":288,"target":34962,"byteStride":12},{"buffer":0,"byteOffset":1584,"byteLength":192,"target":34962,"byteStride":8},{"buffer":0,"byteOffset":1776,"byteLength":192,"target":34962,"byteStride":8},{"buffer":0,"byteOffset":1968,"byteLength":48,"target":34963},{"buffer":0,"byteOffset":2016,"byteLength":288,"target":34962,"byteStride":12},{"buffer":0,"byteOffset":2304,"byteLength":288,"target":34962,"byteStride":12},{"buffer":0,"byteOffset":2592,"byteLength":192,"target":34962,"byteStride":8},{"buffer":0,"byteOffset":2784,"byteLength":192,"target":34962,"byteStride":8},{"buffer":0,"byteOffset":2976,"byteLength":48,"target":34963},{"buffer":0,"byteOffset":3024,"byteLength":288,"target":34962,"byteStride":12},{"buffer":0,"byteOffset":3312,"byteLength":288,"target":34962,"byteStride":12},{"buffer":0,"byteOffset":3600,"byteLength":192,"target":34962,"byteStride":8},{"buffer":0,"byteOffset":3792,"byteLength":192,"target":34962,"byteStride":8},{"buffer":0,"byteOffset":3984,"byteLength":48,"target":34963},{"buffer":0,"byteOffset":4032,"byteLength":288,"target":34962,"byteStride":12},{"buffer":0,"byteOffset":4320,"byteLength":288,"target":34962,"byteStride":12},{"buffer":0,"byteOffset":4608,"byteLength":192,"target":34962,"byteStride":8},{"buffer":0,"byteOffset":4800,"byteLength":192,"target":34962,"byteStride":8},{"buffer":0,"byteOffset":4992,"byteLength":48,"target":34963},{"buffer":0,"byteOffset":5040,"byteLength":288,"target":34962,"byteStride":12},{"buffer":0,"byteOffset":5328,"byteLength":288,"target":34962,"byteStride":12},{"buffer":0,"byteOffset":5616,"byteLength":192,"target":34962,"byteStride":8},{"buffer":0,"byteOffset":5808,"byteLength":192,"target":34962,"byteStride":8},{"buffer":0,"byteOffset":6000,"byteLength":48,"target":34963},{"buffer":0,"byteOffset":6048,"byteLength":288,"target":34962,"byteStride":12},{"buffer":0,"byteOffset":6336,"byteLength":288,"target":34962,"byteStride":12},{"buffer":0,"byteOffset":6624,"byteLength":192,"target":34962,"byteStride":8},{"buffer":0,"byteOffset":6816,"byteLength":192,"target":34962,"byteStride":8},{"buffer":0,"byteOffset":7008,"byteLength":48,"target":34963},{"buffer":0,"byteOffset":7056,"byteLength":288,"target":34962,"byteStride":12},{"buffer":0,"byteOffset":7344,"byteLength":288,"target":34962,"byteStride":12},{"buffer":0,"byteOffset":7632,"byteLength":192,"target":34962,"byteStride":8},{"buffer":0,"byteOffset":7824,"byteLength":192,"target":34962,"byteStride":8},{"buffer":0,"byteOffset":8016,"byteLength":48,"target":34963}],"buffers":[{"byteLength":8064,"uri":"data:application/octet-stream;base64,"}],"accessors":[{"bufferView":0,"componentType":5126,"count":24,"max":[1,0,1],"min":[-1,0,-1],"type":"VEC3"},{"bufferView":1,"componentType":5126,"count":24,"max":[0,1,0],"min":[0,1,0],"type":"VEC3"},{"bufferView":2,"componentType":5126,"count":24,"max":[0.609375,0.140625],"min":[0.484375,0.015625],"type":"VEC2"},{"bufferView":3,"componentType":5126,"count":24,"max":[-1,0],"min":[-1,0],"type":"VEC2"},{"bufferView":4,"componentType":5123,"count":24,"max":[23],"min":[0],"type":"SCALAR"},{"bufferView":5,"componentType":5126,"count":24,"max":[1,0,1],"min":[-1,0,-1],"type":"VEC3"},{"bufferView":6,"componentType":5126,"count":24,"max":[0,1,0],"min":[0,1,0],"type":"VEC3"},{"bufferView":7,"componentType":5126,"count":24,"max":[0.609375,0.140625],"min":[0.484375,0.015625],"type":"VEC2"},{"bufferView":8,"componentType":5126,"count":24,"max":[-1,0],"min":[-1,0],"type":"VEC2"},{"bufferView":9,"componentType":5123,"count":24,"max":[23],"min":[0],"type":"SCALAR"},{"bufferView":10,"componentType":5126,"count":24,"max":[1,0,1],"min":[-1,0,-1],"type":"VEC3"},{"bufferView":11,"componentType":5126,"count":24,"max":[0,1,0],"min":[0,1,0],"type":"VEC3"},{"bufferView":12,"componentType":5126,"count":24,"max":[0.609375,0.140625],"min":[0.484375,0.015625],"type":"VEC2"},{"bufferView":13,"componentType":5126,"count":24,"max":[-1,0],"min":[-1,0],"type":"VEC2"},{"bufferView":14,"componentType":5123,"count":24,"max":[23],"min":[0],"type":"SCALAR"},{"bufferView":15,"componentType":5126,"count":24,"max":[1,0,1],"min":[-1,0,-1],"type":"VEC3"},{"bufferView":16,"componentType":5126,"count":24,"max":[0,1,0],"min":[0,1,0],"type":"VEC3"},{"bufferView":17,"componentType":5126,"count":24,"max":[0.609375,0.140625],"min":[0.484375,0.015625],"type":"VEC2"},{"bufferView":18,"componentType":5126,"count":24,"max":[-1,0],"min":[-1,0],"type":"VEC2"},{"bufferView":19,"componentType":5123,"count":24,"max":[23],"min":[0],"type":"SCALAR"},{"bufferView":20,"componentType":5126,"count":24,"max":[1,0.000038518046494573355,1],"min":[-1,-0.00016905039956327528,-1],"type":"VEC3"},{"bufferView":21,"componentType":5126,"count":24,"max":[0.00009999999747378752,1,0.00020757882157340646],"min":[-0.00012043024617014453,1,-0.000020430248696357012],"type":"VEC3"},{"bufferView":22,"componentType":5126,"count":24,"max":[0.765625,0.296875],"min":[0.484375,0.015625],"type":"VEC2"},{"bufferView":23,"componentType":5126,"count":24,"max":[-1,0],"min":[-1,0],"type":"VEC2"},{"bufferView":24,"componentType":5123,"count":24,"max":[23],"min":[0],"type":"SCALAR"},{"bufferView":25,"componentType":5126,"count":24,"max":[1,0.00004414650175021961,1],"min":[-1,-0.0001566675491631031,-0.9999499917030334],"type":"VEC3"},{"bufferView":26,"componentType":5126,"count":24,"max":[2.6542693376541138e-8,1,0.00019210990285500884],"min":[-0.00009210530697600916,1,0],"type":"VEC3"},{"bufferView":27,"componentType":5126,"count":24,"max":[0.765625,0.140625],"min":[0.484375,0.015625],"type":"VEC2"},{"bufferView":28,"componentType":5126,"count":24,"max":[-1,0],"min":[-1,0],"type":"VEC2"},{"bufferView":29,"componentType":5123,"count":24,"max":[23],"min":[0],"type":"SCALAR"},{"bufferView":30,"componentType":5126,"count":24,"max":[1,0,1],"min":[-1,0,-1],"type":"VEC3"},{"bufferView":31,"componentType":5126,"count":24,"max":[0,1,0],"min":[0,1,0],"type":"VEC3"},{"bufferView":32,"componentType":5126,"count":24,"max":[0.609375,0.296875],"min":[0.484375,0.015625],"type":"VEC2"},{"bufferView":33,"componentType":5126,"count":24,"max":[-1,0],"min":[-1,0],"type":"VEC2"},{"bufferView":34,"componentType":5123,"count":24,"max":[23],"min":[0],"type":"SCALAR"},{"bufferView":35,"componentType":5126,"count":24,"max":[1,-0.00002071092603728175,1],"min":[-1,-0.00014832362649030983,-1.0000499486923218],"type":"VEC3"},{"bufferView":36,"componentType":5126,"count":24,"max":[0.00009999999747378752,1,0.00012761270045302808],"min":[-0.00009999999747378752,1,-0.00004661350976675749],"type":"VEC3"},{"bufferView":37,"componentType":5126,"count":24,"max":[0.765625,0.140625],"min":[0.640625,0.015625],"type":"VEC2"},{"bufferView":38,"componentType":5126,"count":24,"max":[-1,0],"min":[-1,0],"type":"VEC2"},{"bufferView":39,"componentType":5123,"count":24,"max":[23],"min":[0],"type":"SCALAR"}],"materials":[{"pbrMetallicRoughness":{"metallicFactor":0.5,"roughnessFactor":0.5,"baseColorTexture":{"index":0}},"alphaMode":"MASK","alphaCutoff":0.01,"doubleSided":true,"name":"texture_0"}],"textures":[{"sampler":0,"source":0,"name":"texture_0"}],"samplers":[{"magFilter":9728,"minFilter":9728,"wrapS":33071,"wrapT":33071}],"images":[{"mimeType":"image/png","uri":"texture_0.png"}],"meshes":[{"primitives":[{"mode":4,"attributes":{"POSITION":0,"NORMAL":1,"TEXCOORD_0":2,"_UVANIMATION":3},"indices":4,"material":0}]},{"primitives":[{"mode":4,"attributes":{"POSITION":5,"NORMAL":6,"TEXCOORD_0":7,"_UVANIMATION":8},"indices":9,"material":0}]},{"primitives":[{"mode":4,"attributes":{"POSITION":10,"NORMAL":11,"TEXCOORD_0":12,"_UVANIMATION":13},"indices":14,"material":0}]},{"primitives":[{"mode":4,"attributes":{"POSITION":15,"NORMAL":16,"TEXCOORD_0":17,"_UVANIMATION":18},"indices":19,"material":0}]},{"primitives":[{"mode":4,"attributes":{"POSITION":20,"NORMAL":21,"TEXCOORD_0":22,"_UVANIMATION":23},"indices":24,"material":0}]},{"primitives":[{"mode":4,"attributes":{"POSITION":25,"NORMAL":26,"TEXCOORD_0":27,"_UVANIMATION":28},"indices":29,"material":0}]},{"primitives":[{"mode":4,"attributes":{"POSITION":30,"NORMAL":31,"TEXCOORD_0":32,"_UVANIMATION":33},"indices":34,"material":0}]},{"primitives":[{"mode":4,"attributes":{"POSITION":35,"NORMAL":36,"TEXCOORD_0":37,"_UVANIMATION":38},"indices":39,"material":0}]}]}