{"asset":{"version":"2.0","generator":"THREE.GLTFExporter"},"scenes":[{"name":"default","nodes":[0,1,2,3,4,5,6,7,8]}],"scene":0,"nodes":[{"matrix":[2.220446049250313e-16,0,1,0,0,1,0,0,-1,0,2.220446049250313e-16,0,2.5,0,-10.5,1],"name":"BridgeEast","extras":{"data":{"name":"BridgeConnecting","points":[{"name":"Origin","pos":{"x":0,"y":0,"z":0}}],"billboard":{"enabled":false,"y":false},"custom":[],"instance":{"name":"BridgeEast","uuid":"2D567EB6-C5F6-411E-9E59-A1D8050D11FC","parent":null,"pos":{"x":2.5,"y":0,"z":-10.5},"rot":{"x":0,"y":-1.5707963267948966,"z":0,"order":"XYZ"},"sca":{"x":1,"y":1,"z":1},"custom":[]}}},"mesh":0},{"matrix":[2.220446049250313e-16,4.930380657631324e-32,-1,0,0,1,4.930380657631324e-32,0,1,-1.0947644252537633e-47,2.220446049250313e-16,0,2.5,0,-6.5,1],"name":"BridgeWest","extras":{"data":{"name":"BridgeConnecting","points":[{"name":"Origin","pos":{"x":0,"y":0,"z":0}}],"billboard":{"enabled":false,"y":false},"custom":[],"instance":{"name":"BridgeWest","uuid":"C9C7C955-2B49-4235-9739-894E05A6A31B","parent":null,"pos":{"x":2.5,"y":0,"z":-6.5},"rot":{"x":4.930380657631324e-32,"y":1.5707963267948966,"z":0,"order":"XYZ"},"sca":{"x":1,"y":1,"z":1},"custom":[]}}},"mesh":1},{"matrix":[1,0,0,0,0,1,0,0,0,0,1,0,0.5,0,-8.5,1],"name":"BridgeNorth","extras":{"data":{"name":"BridgeConnecting","points":[{"name":"Origin","pos":{"x":0,"y":0,"z":0}}],"billboard":{"enabled":false,"y":false},"custom":[],"instance":{"name":"BridgeNorth","uuid":"AD503989-CFE5-41B3-B1D8-F0F5663CB508","parent":null,"pos":{"x":0.5,"y":0,"z":-8.5},"rot":{"x":0,"y":0,"z":0,"order":"XYZ"},"sca":{"x":1,"y":1,"z":1},"custom":[]}}},"mesh":2},{"matrix":[-1,1.2246467991473532e-16,1.2246467991473532e-16,0,1.2246467991473532e-16,1,1.2246467991473532e-16,0,-1.2246467991473532e-16,1.2246467991473532e-16,-1,0,4.5,0,-8.5,1],"name":"BridgeSouth","extras":{"data":{"name":"BridgeConnecting","points":[{"name":"Origin","pos":{"x":0,"y":0,"z":0}}],"billboard":{"enabled":false,"y":false},"custom":[],"instance":{"name":"BridgeSouth","uuid":"318600D5-8ABF-4991-898E-E09A055EA2F1","parent":null,"pos":{"x":4.5,"y":0,"z":-8.5},"rot":{"x":-3.141592653589793,"y":-1.2246467991473532e-16,"z":-3.141592653589793,"order":"XYZ"},"sca":{"x":1,"y":1,"z":1},"custom":[]}}},"mesh":3},{"matrix":[1,0,0,0,0,1,0,0,0,0,1,0,2.5,0,-8.5,1],"name":"BridgeCorner","extras":{"data":{"name":"BridgeCorner","points":[{"name":"Origin","pos":{"x":0,"y":0,"z":0}}],"billboard":{"enabled":false,"y":false},"custom":[],"instance":{"name":"BridgeCorner","uuid":"D4168D19-BEE0-412F-9E6B-357053EBBBD9","parent":null,"pos":{"x":2.5,"y":0,"z":-8.5},"rot":{"x":0,"y":0,"z":0,"order":"XYZ"},"sca":{"x":1,"y":1,"z":1},"custom":[]}}},"mesh":4},{"matrix":[1,0,0,0,0,1,0,0,0,0,1,0,2.5,0,-8.5,1],"name":"BridgeTJunction","extras":{"data":{"name":"BridgeTJunction","points":[{"name":"Origin","pos":{"x":0,"y":0,"z":0}}],"billboard":{"enabled":false,"y":false},"custom":[],"instance":{"name":"BridgeTJunction","uuid":"8DE1E3F5-19CA-48ED-A9B1-2A65AC7C395C","parent":null,"pos":{"x":2.5,"y":0,"z":-8.5},"rot":{"x":0,"y":0,"z":0,"order":"XYZ"},"sca":{"x":1,"y":1,"z":1},"custom":[]}}},"mesh":5},{"matrix":[1,0,0,0,0,1,0,0,0,0,1,0,2.5,0,-8.5,1],"name":"BridgeEnd","extras":{"data":{"name":"BridgeEnd","points":[{"name":"Origin","pos":{"x":0,"y":0,"z":0}}],"billboard":{"enabled":false,"y":false},"custom":[],"instance":{"name":"BridgeEnd","uuid":"7BA5218D-4DC0-4C1D-A112-8BB05B2DF241","parent":null,"pos":{"x":2.5,"y":0,"z":-8.5},"rot":{"x":0,"y":0,"z":0,"order":"XYZ"},"sca":{"x":1,"y":1,"z":1},"custom":[]}}},"mesh":6},{"matrix":[1,0,0,0,0,1,0,0,0,0,1,0,2.5,0,-8.5,1],"name":"BridgeFourJunction","extras":{"data":{"name":"BridgeFourJunction","points":[{"name":"Origin","pos":{"x":0,"y":0,"z":0}}],"billboard":{"enabled":false,"y":false},"custom":[],"instance":{"name":"BridgeFourJunction","uuid":"C6213A4D-6581-4E51-90E8-F706922C87EA","parent":null,"pos":{"x":2.5,"y":0,"z":-8.5},"rot":{"x":0,"y":0,"z":0,"order":"XYZ"},"sca":{"x":1,"y":1,"z":1},"custom":[]}}},"mesh":7},{"matrix":[1,0,0,0,0,1,0,0,0,0,1,0,2.499999999999999,0,-8.5,1],"name":"BridgeSupport","extras":{"data":{"name":"BridgeSupport","points":[{"name":"Origin","pos":{"x":0,"y":0,"z":0}}],"billboard":{"enabled":false,"y":false},"custom":[],"instance":{"name":"BridgeSupport","uuid":"151B1E08-0B95-45C4-BD11-6467FEDC387B","parent":null,"pos":{"x":2.5,"y":0,"z":-8.5},"rot":{"x":0,"y":0,"z":0,"order":"XYZ"},"sca":{"x":1,"y":1,"z":1},"custom":[]}}},"mesh":8}],"bufferViews":[{"buffer":0,"byteOffset":0,"byteLength":288,"target":34962,"byteStride":12},{"buffer":0,"byteOffset":288,"byteLength":288,"target":34962,"byteStride":12},{"buffer":0,"byteOffset":576,"byteLength":192,"target":34962,"byteStride":8},{"buffer":0,"byteOffset":768,"byteLength":192,"target":34962,"byteStride":8},{"buffer":0,"byteOffset":960,"byteLength":48,"target":34963},{"buffer":0,"byteOffset":1008,"byteLength":288,"target":34962,"byteStride":12},{"buffer":0,"byteOffset":1296,"byteLength":288,"target":34962,"byteStride":12},{"buffer":0,"byteOffset":1584,"byteLength":192,"target":34962,"byteStride":8},{"buffer":0,"byteOffset":1776,"byteLength":192,"target":34962,"byteStride":8},{"buffer":0,"byteOffset":1968,"byteLength":48,"target":34963},{"buffer":0,"byteOffset":2016,"byteLength":288,"target":34962,"byteStride":12},{"buffer":0,"byteOffset":2304,"byteLength":288,"target":34962,"byteStride":12},{"buffer":0,"byteOffset":2592,"byteLength":192,"target":34962,"byteStride":8},{"buffer":0,"byteOffset":2784,"byteLength":192,"target":34962,"byteStride":8},{"buffer":0,"byteOffset":2976,"byteLength":48,"target":34963},{"buffer":0,"byteOffset":3024,"byteLength":288,"target":34962,"byteStride":12},{"buffer":0,"byteOffset":3312,"byteLength":288,"target":34962,"byteStride":12},{"buffer":0,"byteOffset":3600,"byteLength":192,"target":34962,"byteStride":8},{"buffer":0,"byteOffset":3792,"byteLength":192,"target":34962,"byteStride":8},{"buffer":0,"byteOffset":3984,"byteLength":48,"target":34963},{"buffer":0,"byteOffset":4032,"byteLength":288,"target":34962,"byteStride":12},{"buffer":0,"byteOffset":4320,"byteLength":288,"target":34962,"byteStride":12},{"buffer":0,"byteOffset":4608,"byteLength":192,"target":34962,"byteStride":8},{"buffer":0,"byteOffset":4800,"byteLength":192,"target":34962,"byteStride":8},{"buffer":0,"byteOffset":4992,"byteLength":48,"target":34963},{"buffer":0,"byteOffset":5040,"byteLength":288,"target":34962,"byteStride":12},{"buffer":0,"byteOffset":5328,"byteLength":288,"target":34962,"byteStride":12},{"buffer":0,"byteOffset":5616,"byteLength":192,"target":34962,"byteStride":8},{"buffer":0,"byteOffset":5808,"byteLength":192,"target":34962,"byteStride":8},{"buffer":0,"byteOffset":6000,"byteLength":48,"target":34963},{"buffer":0,"byteOffset":6048,"byteLength":288,"target":34962,"byteStride":12},{"buffer":0,"byteOffset":6336,"byteLength":288,"target":34962,"byteStride":12},{"buffer":0,"byteOffset":6624,"byteLength":192,"target":34962,"byteStride":8},{"buffer":0,"byteOffset":6816,"byteLength":192,"target":34962,"byteStride":8},{"buffer":0,"byteOffset":7008,"byteLength":48,"target":34963},{"buffer":0,"byteOffset":7056,"byteLength":288,"target":34962,"byteStride":12},{"buffer":0,"byteOffset":7344,"byteLength":288,"target":34962,"byteStride":12},{"buffer":0,"byteOffset":7632,"byteLength":192,"target":34962,"byteStride":8},{"buffer":0,"byteOffset":7824,"byteLength":192,"target":34962,"byteStride":8},{"buffer":0,"byteOffset":8016,"byteLength":48,"target":34963},{"buffer":0,"byteOffset":8064,"byteLength":576,"target":34962,"byteStride":12},{"buffer":0,"byteOffset":8640,"byteLength":576,"target":34962,"byteStride":12},{"buffer":0,"byteOffset":9216,"byteLength":384,"target":34962,"byteStride":8},{"buffer":0,"byteOffset":9600,"byteLength":384,"target":34962,"byteStride":8},{"buffer":0,"byteOffset":9984,"byteLength":96,"target":34963}],"buffers":[{"byteLength":10080,"uri":"data:application/octet-stream;base64,"}],"accessors":[{"bufferView":0,"componentType":5126,"count":24,"max":[1,0,1],"min":[-0.5,0,-1],"type":"VEC3"},{"bufferView":1,"componentType":5126,"count":24,"max":[0,1,0],"min":[0,1,0],"type":"VEC3"},{"bufferView":2,"componentType":5126,"count":24,"max":[0.609375,0.453125],"min":[0.484375,0.328125],"type":"VEC2"},{"bufferView":3,"componentType":5126,"count":24,"max":[-1,0],"min":[-1,0],"type":"VEC2"},{"bufferView":4,"componentType":5123,"count":24,"max":[23],"min":[0],"type":"SCALAR"},{"bufferView":5,"componentType":5126,"count":24,"max":[1,0,1],"min":[-0.5,0,-1],"type":"VEC3"},{"bufferView":6,"componentType":5126,"count":24,"max":[0,1,0],"min":[0,1,0],"type":"VEC3"},{"bufferView":7,"componentType":5126,"count":24,"max":[0.609375,0.453125],"min":[0.484375,0.328125],"type":"VEC2"},{"bufferView":8,"componentType":5126,"count":24,"max":[-1,0],"min":[-1,0],"type":"VEC2"},{"bufferView":9,"componentType":5123,"count":24,"max":[23],"min":[0],"type":"SCALAR"},{"bufferView":10,"componentType":5126,"count":24,"max":[1,0,1],"min":[-0.5,0,-1],"type":"VEC3"},{"bufferView":11,"componentType":5126,"count":24,"max":[0,1,0],"min":[0,1,0],"type":"VEC3"},{"bufferView":12,"componentType":5126,"count":24,"max":[0.609375,0.453125],"min":[0.484375,0.328125],"type":"VEC2"},{"bufferView":13,"componentType":5126,"count":24,"max":[-1,0],"min":[-1,0],"type":"VEC2"},{"bufferView":14,"componentType":5123,"count":24,"max":[23],"min":[0],"type":"SCALAR"},{"bufferView":15,"componentType":5126,"count":24,"max":[1,0,1],"min":[-0.5,0,-1],"type":"VEC3"},{"bufferView":16,"componentType":5126,"count":24,"max":[0,1,0],"min":[0,1,0],"type":"VEC3"},{"bufferView":17,"componentType":5126,"count":24,"max":[0.609375,0.453125],"min":[0.484375,0.328125],"type":"VEC2"},{"bufferView":18,"componentType":5126,"count":24,"max":[-1,0],"min":[-1,0],"type":"VEC2"},{"bufferView":19,"componentType":5123,"count":24,"max":[23],"min":[0],"type":"SCALAR"},{"bufferView":20,"componentType":5126,"count":24,"max":[1,0.000038518046494573355,1],"min":[-1,-0.00014862015086691827,-1],"type":"VEC3"},{"bufferView":21,"componentType":5126,"count":24,"max":[4.357851413061553e-9,1,0.00009999999747378752],"min":[-0.000012857436558988411,1,0.00008713820716366172],"type":"VEC3"},{"bufferView":22,"componentType":5126,"count":24,"max":[0.765625,0.609375],"min":[0.484375,0.328125],"type":"VEC2"},{"bufferView":23,"componentType":5126,"count":24,"max":[-1,0],"min":[-1,0],"type":"VEC2"},{"bufferView":24,"componentType":5123,"count":24,"max":[23],"min":[0],"type":"SCALAR"},{"bufferView":25,"componentType":5126,"count":24,"max":[1,0.00004414650175021961,1],"min":[-1,-0.00015664100646972656,-0.9999499917030334],"type":"VEC3"},{"bufferView":26,"componentType":5126,"count":24,"max":[0.00007958251080708578,1,0.00009999999747378752],"min":[-0.0000920937818591483,1,1.0698433250411199e-8],"type":"VEC3"},{"bufferView":27,"componentType":5126,"count":24,"max":[0.765625,0.453125],"min":[0.484375,0.328125],"type":"VEC2"},{"bufferView":28,"componentType":5126,"count":24,"max":[-1,0],"min":[-1,0],"type":"VEC2"},{"bufferView":29,"componentType":5123,"count":24,"max":[23],"min":[0],"type":"SCALAR"},{"bufferView":30,"componentType":5126,"count":24,"max":[1,0,1],"min":[-1,0,-1],"type":"VEC3"},{"bufferView":31,"componentType":5126,"count":24,"max":[0,1,0],"min":[0,1,0],"type":"VEC3"},{"bufferView":32,"componentType":5126,"count":24,"max":[0.609375,0.609375],"min":[0.484375,0.328125],"type":"VEC2"},{"bufferView":33,"componentType":5126,"count":24,"max":[-1,0],"min":[-1,0],"type":"VEC2"},{"bufferView":34,"componentType":5123,"count":24,"max":[23],"min":[0],"type":"SCALAR"},{"bufferView":35,"componentType":5126,"count":24,"max":[1,0.00003636689143604599,1],"min":[-1,-0.00012071092351106927,-1],"type":"VEC3"},{"bufferView":36,"componentType":5126,"count":24,"max":[0.00005708067328669131,1,0.0001570699387229979],"min":[-0.000057074961659964174,1,-0.00005708067328669131],"type":"VEC3"},{"bufferView":37,"componentType":5126,"count":24,"max":[0.765625,0.453125],"min":[0.640625,0.328125],"type":"VEC2"},{"bufferView":38,"componentType":5126,"count":24,"max":[-1,0],"min":[-1,0],"type":"VEC2"},{"bufferView":39,"componentType":5123,"count":24,"max":[23],"min":[0],"type":"SCALAR"},{"bufferView":40,"componentType":5126,"count":48,"max":[1,0,1],"min":[-1,-0.5,-1],"type":"VEC3"},{"bufferView":41,"componentType":5126,"count":48,"max":[1,0,1],"min":[-1,0,-1],"type":"VEC3"},{"bufferView":42,"componentType":5126,"count":48,"max":[0.703125,0.546875],"min":[0.640625,0.484375],"type":"VEC2"},{"bufferView":43,"componentType":5126,"count":48,"max":[-1,0],"min":[-1,0],"type":"VEC2"},{"bufferView":44,"componentType":5123,"count":48,"max":[47],"min":[0],"type":"SCALAR"}],"materials":[{"pbrMetallicRoughness":{"metallicFactor":0.5,"roughnessFactor":0.5,"baseColorTexture":{"index":0}},"alphaMode":"MASK","alphaCutoff":0.01,"doubleSided":true,"name":"texture_0"}],"textures":[{"sampler":0,"source":0,"name":"texture_0"}],"samplers":[{"magFilter":9728,"minFilter":9728,"wrapS":33071,"wrapT":33071}],"images":[{"mimeType":"image/png","uri":"texture_0.png"}],"meshes":[{"primitives":[{"mode":4,"attributes":{"POSITION":0,"NORMAL":1,"TEXCOORD_0":2,"_UVANIMATION":3},"indices":4,"material":0}]},{"primitives":[{"mode":4,"attributes":{"POSITION":5,"NORMAL":6,"TEXCOORD_0":7,"_UVANIMATION":8},"indices":9,"material":0}]},{"primitives":[{"mode":4,"attributes":{"POSITION":10,"NORMAL":11,"TEXCOORD_0":12,"_UVANIMATION":13},"indices":14,"material":0}]},{"primitives":[{"mode":4,"attributes":{"POSITION":15,"NORMAL":16,"TEXCOORD_0":17,"_UVANIMATION":18},"indices":19,"material":0}]},{"primitives":[{"mode":4,"attributes":{"POSITION":20,"NORMAL":21,"TEXCOORD_0":22,"_UVANIMATION":23},"indices":24,"material":0}]},{"primitives":[{"mode":4,"attributes":{"POSITION":25,"NORMAL":26,"TEXCOORD_0":27,"_UVANIMATION":28},"indices":29,"material":0}]},{"primitives":[{"mode":4,"attributes":{"POSITION":30,"NORMAL":31,"TEXCOORD_0":32,"_UVANIMATION":33},"indices":34,"material":0}]},{"primitives":[{"mode":4,"attributes":{"POSITION":35,"NORMAL":36,"TEXCOORD_0":37,"_UVANIMATION":38},"indices":39,"material":0}]},{"primitives":[{"mode":4,"attributes":{"POSITION":40,"NORMAL":41,"TEXCOORD_0":42,"_UVANIMATION":43},"indices":44,"material":0}]}]}